# xmcd
# 
# Track frame offsets:
#     150
#     14258
#     25303
#     36926
#     50982
#     68335
#     81420
#     103463
#     117745
#     127029
#     142488
#     157046
# 
# Disc length: 2392
# 
# Revision: 1
# Processed by: cddbd v1.5.2PL0 Copyright (c) Steve Scherf et al.
# Submitted via: fre:ac v1.0.31
# 
DISCID=bc09560c
DTITLE=John Stewart - California Bloodlines
DYEAR=2007
DGENRE=Rock/Pop
TTITLE0=California Bloodlines
TTITLE1=Razorback Woman
TTITLE2=She Believes in Me
TTITLE3=Omaha Rainbow
TTITLE4=The Pirates of Stone County Road
TTITLE5=Shackles and Chains
TTITLE6=Mother Country
TTITLE7=Some Lonesome Picker
TTITLE8=You Can't Look Back
TTITLE9=Missouri Birds
TTITLE10=July You're a Woman
TTITLE11=Never Goin' Back
EXTD=
EXTT0=
EXTT1=
EXTT2=
EXTT3=
EXTT4=
EXTT5=
EXTT6=
EXTT7=
EXTT8=
EXTT9=
EXTT10=
EXTT11=
PLAYORDER=
